<?xml version="1.0" standalone="no"?>
<!DOCTYPE svg PUBLIC "-//W3C//DTD SVG 20010904//EN"
 "http://www.w3.org/TR/2001/REC-SVG-20010904/DTD/svg10.dtd">
<svg version="1.0" xmlns="http://www.w3.org/2000/svg"
 width="382.000000pt" height="382.000000pt" viewBox="0 0 382.000000 382.000000"
 preserveAspectRatio="xMidYMid meet">

<g transform="translate(0.000000,382.000000) scale(0.100000,-0.100000)"
fill="#000000" stroke="none">
<path d="M0 1910 l0 -1910 1910 0 1910 0 0 1910 0 1910 -1910 0 -1910 0 0
-1910z m2030 1555 c109 -15 253 -49 280 -66 12 -8 11 -9 -5 -4 -76 24 -202 45
-142 23 17 -6 24 -14 20 -21 -4 -7 -8 -23 -9 -35 0 -13 -7 -28 -14 -32 -7 -4
-9 -13 -5 -20 5 -9 4 -11 -3 -6 -8 4 -12 0 -12 -11 0 -25 -19 -43 -44 -43 -33
-1 0 -15 67 -29 99 -21 58 -21 -63 0 -213 38 -499 13 -699 -61 -483 -178 -811
-567 -897 -1063 -25 -145 -16 -387 21 -539 16 -65 31 -118 34 -118 3 0 22 22
41 48 19 25 205 219 414 429 391 395 424 423 499 423 64 0 97 -23 252 -174
175 -171 169 -169 255 -75 31 33 62 61 70 62 8 2 21 6 28 10 6 5 16 6 21 2 5
-3 13 0 17 6 4 8 3 9 -4 5 -23 -14 -11 13 14 33 15 12 22 21 17 21 -5 0 -24
-16 -43 -35 -18 -19 -35 -33 -37 -31 -5 5 595 600 610 605 7 2 -109 -115 -256
-260 -212 -208 -267 -268 -262 -282 5 -12 11 -15 20 -7 8 7 18 3 35 -15 20
-21 21 -27 10 -38 -8 -7 -10 -8 -7 -1 4 7 -1 18 -10 25 -12 10 -14 10 -9 2 4
-8 2 -13 -5 -13 -7 0 -2 -11 11 -25 13 -14 29 -25 37 -25 7 0 13 -5 13 -11 0
-5 -4 -7 -10 -4 -5 3 -10 1 -10 -4 0 -11 13 -15 40 -12 8 1 2 -7 -14 -18 -17
-11 -33 -18 -37 -15 -4 2 -6 -7 -3 -22 3 -18 1 -23 -7 -18 -7 4 -9 3 -5 -4 3
-6 1 -14 -6 -19 -7 -4 -26 -24 -43 -43 -16 -19 -4 -10 28 20 32 30 53 56 47
58 -5 2 -7 8 -4 14 4 7 9 7 13 0 6 -11 40 20 380 353 96 93 168 161 160 150
-8 -11 -195 -198 -414 -417 -352 -348 -405 -397 -443 -408 -79 -21 -108 -2
-343 228 -79 77 -89 84 -116 78 -22 -5 -128 -105 -395 -374 -340 -341 -428
-441 -428 -482 0 -30 78 -138 161 -224 75 -79 177 -166 193 -166 4 0 4 92 0
205 l-7 206 154 149 154 150 8 -248 c4 -136 6 -336 3 -444 l-6 -197 78 -25
c72 -22 188 -48 275 -60 l37 -5 0 479 0 479 48 -21 c33 -15 68 -21 122 -22 70
0 91 5 163 42 4 2 7 -210 7 -472 l0 -475 33 6 c94 18 187 47 262 82 l84 39 4
69 3 68 2 -67 2 -68 -37 -23 c-90 -56 -320 -128 -360 -113 -10 4 -13 51 -15
213 -2 167 -3 181 -5 70 -2 -76 -7 -136 -12 -133 -4 3 -8 -1 -8 -9 0 -8 3 -12
7 -10 4 2 7 -12 8 -32 1 -21 -4 -41 -11 -45 -9 -6 -9 -8 1 -8 6 0 12 -5 12
-11 0 -5 -5 -7 -12 -3 -6 4 -8 3 -4 -4 3 -6 -2 -16 -11 -22 -16 -10 -16 -11 3
-7 17 4 20 1 17 -14 -3 -11 -12 -19 -20 -19 -12 0 -14 -7 -9 -30 3 -19 2 -29
-4 -25 -6 3 -10 1 -10 -4 0 -6 5 -11 10 -11 6 0 10 -5 10 -11 0 -5 -4 -7 -10
-4 -6 3 -7 -1 -4 -9 3 -9 11 -13 18 -9 6 4 4 -2 -4 -12 -11 -14 -12 -19 -3
-22 10 -4 10 -7 0 -18 -7 -7 -15 -11 -19 -8 -5 2 -8 -1 -8 -6 0 -7 -31 -12
-77 -13 l-78 -2 65 -4 c124 -7 342 36 505 99 151 58 329 166 461 278 16 14 7
4 -20 -22 -65 -62 -220 -166 -322 -216 -695 -342 -1567 -104 -1999 546 -112
168 -203 394 -241 598 -28 150 -26 482 4 618 73 331 205 572 441 807 199 198
382 311 626 389 235 75 460 97 685 66z m1018 -62 c-15 -2 -42 -2 -60 0 -18 2
-6 4 27 4 33 0 48 -2 33 -4z m-130 -38 c-6 -14 -13 -23 -15 -21 -5 5 15 46 22
46 3 0 -1 -11 -7 -25z m10 -110 c4 -6 -1 -2 -10 8 -10 11 -18 27 -17 36 0 10
4 7 10 -8 5 -14 13 -30 17 -36z m37 -45 c10 -11 16 -20 13 -20 -3 0 -13 9 -23
20 -10 11 -16 20 -13 20 3 0 13 -9 23 -20z m-5 -193 c0 -2 -19 -21 -42 -42
l-43 -40 40 43 c36 39 45 47 45 39z m-117 -121 c-15 -19 -32 -35 -37 -35 -6
-1 5 15 24 34 43 45 50 45 13 1z m-59 -59 c-3 -8 -19 -24 -37 -37 l-32 -23 34
37 c38 40 43 43 35 23z m-524 -551 c0 -2 -8 -10 -17 -17 -16 -13 -17 -12 -4 4
13 16 21 21 21 13z m14 -72 c3 -8 2 -12 -4 -9 -6 3 -10 10 -10 16 0 14 7 11
14 -7z m361 -256 c-39 -40 -72 -75 -75 -78 -3 -3 -27 -29 -55 -58 l-50 -53 -5
-482 -5 -482 -3 476 c-2 474 -2 476 20 505 24 33 230 244 238 244 2 0 -27 -32
-65 -72z m122 -150 c-1 -40 -3 -8 -3 72 0 80 2 112 3 73 2 -40 2 -106 0 -145z
m0 -395 c-1 -60 -3 -11 -3 107 0 118 2 167 3 108 2 -60 2 -156 0 -215z m0
-150 c-3 -10 -5 -4 -5 12 0 17 2 24 5 18 2 -7 2 -21 0 -30z m0 -205 c-2 -35
-3 -7 -3 62 0 69 1 97 3 63 2 -35 2 -91 0 -125z m0 -100 c-3 -8 -6 -5 -6 6 -1
11 2 17 5 13 3 -3 4 -12 1 -19z m93 19 c0 -2 -10 -12 -22 -23 l-23 -19 19 23
c18 21 26 27 26 19z m-40 -51 c0 -2 -8 -10 -17 -17 -16 -13 -17 -12 -4 4 13
16 21 21 21 13z m185 -118 c-27 -29 -50 -55 -52 -57 -2 -2 -3 -1 -3 3 0 8 90
106 98 106 2 0 -17 -24 -43 -52z m-65 -72 c0 -2 -8 -10 -17 -17 -16 -13 -17
-12 -4 4 13 16 21 21 21 13z m-875 -346 c-3 -5 2 -10 11 -10 10 0 15 -3 11 -6
-10 -10 -39 5 -32 16 3 5 8 10 11 10 3 0 2 -4 -1 -10z"/>
<path d="M2268 2083 c7 -3 16 -2 19 1 4 3 -2 6 -13 5 -11 0 -14 -3 -6 -6z"/>
<path d="M2043 1045 c0 -27 2 -38 4 -22 2 15 2 37 0 50 -2 12 -4 0 -4 -28z"/>
<path d="M2005 610 c-3 -6 1 -7 9 -4 18 7 21 14 7 14 -6 0 -13 -4 -16 -10z"/>
<path d="M1738 303 c7 -3 16 -2 19 1 4 3 -2 6 -13 5 -11 0 -14 -3 -6 -6z"/>
<path d="M1798 303 c7 -3 16 -2 19 1 4 3 -2 6 -13 5 -11 0 -14 -3 -6 -6z"/>
</g>
</svg>
